{"title":"Terminator.Genisys.2015.HC.HDRiP.XViD.ReLeNTLesS","uid":12211912,"size":1564547782,"categoryP":"video","categoryS":"movies","magnet":"?xt=urn:btih:1cdd1f7872932cd71fbe38268304cbd2a976ad41&amp;dn=Terminator.Genisys.2015.HC.HDRiP.XViD.ReLeNTLesS&amp;tr=udp%3A%2F%2Ftracker.openbittorrent.com%3A80&amp;tr=udp%3A%2F%2Fopen.demonii.com%3A1337&amp;tr=udp%3A%2F%2Ftracker.coppersurfer.tk%3A6969&amp;tr=udp%3A%2F%2Fexodus.desync.com%3A6969","seeders":2,"leechers":3,"uploader":"TvTeam","files":4,"time":1439113460,"description":"------------------------------------------------------------------------\n\n &lt;a href=&quot; https://www.torrenting.com&quot; rel=&quot;nofollow&quot; target=&quot;_NEW&quot;&gt; https://www.torrenting.com&lt;/a&gt;\n\nSign up is OPEN - for time being. Come and have fun\n\n.......................................................................................................................P0STER\n[img]http://i.imgur.com/D6mKOqU.png[/img]\n\niMDB: http://www.imdb.com/title/tt1340138/\n\nGeneral\nComplete name               : Terminator.Genisys.2015.HC.HDRiP.XViD.ReLeNTLesS.avi\nFormat                      : AVI\nFormat/Info                 : Audio Video Interleave\nFile size                   : 1.44 GiB\nDuration                    : 2h 0mn\nOverall bit rate            : 1 706 Kbps\n\nVideo\nID                          : 0\nFormat                      : MPEG-4 Visual\nFormat profile              : Advanced Simple@L5\nFormat settings, BVOP       : 1\nFormat settings, QPel       : No\nFormat settings, GMC        : No warppoints\nFormat settings, Matrix     : Default (H.263)\nMuxing mode                 : Packed bitstream\nCodec ID                    : XVID\nCodec ID/Hint               : XviD\nDuration                    : 2h 0mn\nBit rate                    : 1 505 Kbps\nWidth                       : 720 pixels\nHeight                      : 304 pixels\nDisplay aspect ratio        : 2.35:1\nFrame rate                  : 30.000 fps\nColor space                 : YUV\nChroma subsampling          : 4:2:0\nBit depth                   : 8 bits\nScan type                   : Progressive\nCompression mode            : Lossy\nBits/(Pixel*Frame)          : 0.229\nStream size                 : 1.27 GiB (88%)\nWriting library             : XviD 1.2.1 (UTC 2008-12-04)\n\nAudio\nID                          : 1\nFormat                      : AC-3\nFormat/Info                 : Audio Coding 3\nMode extension              : CM (complete main)\nFormat settings, Endianness : Big\nCodec ID                    : 2000\nDuration                    : 2h 0mn\nBit rate mode               : Constant\nBit rate                    : 192 Kbps\nChannel(s)                  : 2 channels\nChannel positions           : Front: L R\nSampling rate               : 48.0 KHz\nCompression mode            : Lossy\nStream size                 : 165 MiB (11%)\nAlignment                   : Aligned on interleaves\nInterleave, duration        : 64 ms (1.92 video frames)\nInterleave, preload duratio : 192 ms\nTitle                       : Terminator.Genisys.2015.ReLeNTLesS.Audio.2.0.English\nSample Included             : Yes\nSource                      : Yep the 18 gig 1080\n\nPL0T\nJohn Connor sends Kyle Reese back in time to protect Sarah Connor, but when he arrives in 1984, nothing is as he expected it to be.\n\nCAST\nDirector: Alan Taylor\nWriters: Laeta Kalogridis, Patrick Lussier\nStars: Arnold Schwarzenegger, Jason Clarke, Emilia Clarke\n\nN0TE\nFor a large source it wasn't perfect. Cropped Boarders, Brightend the dark scenes a bit, degrained, sharpend, did audio and muxed.  Hardcoded Subs throughout.\n\nSCREENS\n[img]http://i.imgur.com/7lIFypl.png[/img]\n[img]http://i.imgur.com/jMEzcwc.png[/img]\n[img]http://i.imgur.com/ejZiM9z.png[/img]\n[img]http://i.imgur.com/Z1wXkOk.png[/img]\n[img]http://i.imgur.com/QRbDffb.png[/img]\n[img]http://i.imgur.com/TFK7jxw.png[/img]\n\nTRAiLER\n\nGREETZ\n\n\nHIVE-CM8, Blackjesus, M0RPH, M00SE, MiLLENiUM,\n\nMANiX, TiTAN, Anonymous, TuX, \n\nACAB, KingStoner, FooKas, 4PlayHD, \n\nGodFather, Cld.... \n\nKeep up the good work guyz","torrent":{"xt":"urn:btih:1cdd1f7872932cd71fbe38268304cbd2a976ad41","amp;dn":"Terminator.Genisys.2015.HC.HDRiP.XViD.ReLeNTLesS","amp;tr":["udp%3A%2F%2Ftracker.openbittorrent.com%3A80","udp%3A%2F%2Fopen.demonii.com%3A1337","udp%3A%2F%2Ftracker.coppersurfer.tk%3A6969","udp%3A%2F%2Fexodus.desync.com%3A6969"],"infoHash":"1cdd1f7872932cd71fbe38268304cbd2a976ad41","infoHashBuffer":{"type":"Buffer","data":[28,221,31,120,114,147,44,215,31,190,56,38,131,4,203,210,169,118,173,65]},"announce":[],"urlList":[]}}